<mxfile host="Electron" agent="Mozilla/5.0 (Windows NT 10.0; Win64; x64) AppleWebKit/537.36 (KHTML, like Gecko) draw.io/24.7.17 Chrome/128.0.6613.36 Electron/32.0.1 Safari/537.36" version="24.7.17">
  <diagram name="Страница — 1" id="kMK4P9hotfpQ_Spd6qPo">
    <mxGraphModel dx="890" dy="820" grid="1" gridSize="10" guides="1" tooltips="1" connect="1" arrows="1" fold="1" page="1" pageScale="1" pageWidth="827" pageHeight="1169" math="0" shadow="0">
      <root>
        <mxCell id="0" />
        <mxCell id="1" parent="0" />
        <mxCell id="Zv3L8iQLcZKGsGOPM7jH-1" value="" style="rounded=0;whiteSpace=wrap;html=1;fillColor=none;" parent="1" vertex="1">
          <mxGeometry x="223" y="240" width="140" height="90" as="geometry" />
        </mxCell>
        <mxCell id="Zv3L8iQLcZKGsGOPM7jH-2" style="edgeStyle=orthogonalEdgeStyle;rounded=0;orthogonalLoop=1;jettySize=auto;html=1;entryX=1;entryY=0.5;entryDx=0;entryDy=0;endArrow=oval;endFill=1;" parent="1" source="Zv3L8iQLcZKGsGOPM7jH-4" target="Zv3L8iQLcZKGsGOPM7jH-25" edge="1">
          <mxGeometry relative="1" as="geometry" />
        </mxCell>
        <mxCell id="Zv3L8iQLcZKGsGOPM7jH-3" style="edgeStyle=orthogonalEdgeStyle;rounded=0;orthogonalLoop=1;jettySize=auto;html=1;entryX=1;entryY=0.5;entryDx=0;entryDy=0;endArrow=oval;endFill=1;" parent="1" source="Zv3L8iQLcZKGsGOPM7jH-4" target="Zv3L8iQLcZKGsGOPM7jH-39" edge="1">
          <mxGeometry relative="1" as="geometry">
            <Array as="points">
              <mxPoint x="383" y="255" />
              <mxPoint x="383" y="425" />
            </Array>
          </mxGeometry>
        </mxCell>
        <mxCell id="Zv3L8iQLcZKGsGOPM7jH-4" value="Логин (PK)" style="rounded=0;whiteSpace=wrap;html=1;fillColor=none;" parent="1" vertex="1">
          <mxGeometry x="223" y="240" width="140" height="30" as="geometry" />
        </mxCell>
        <mxCell id="Zv3L8iQLcZKGsGOPM7jH-5" value="Пользователь" style="rounded=0;whiteSpace=wrap;html=1;fillColor=none;" parent="1" vertex="1">
          <mxGeometry x="223" y="300" width="90" height="30" as="geometry" />
        </mxCell>
        <mxCell id="Zv3L8iQLcZKGsGOPM7jH-6" value="" style="rounded=0;whiteSpace=wrap;html=1;fillColor=none;strokeColor=none;" parent="1" vertex="1">
          <mxGeometry x="223" y="270" width="140" height="30" as="geometry" />
        </mxCell>
        <mxCell id="Zv3L8iQLcZKGsGOPM7jH-7" value="" style="rounded=0;whiteSpace=wrap;html=1;fillColor=none;" parent="1" vertex="1">
          <mxGeometry x="223" y="380" width="140" height="120" as="geometry" />
        </mxCell>
        <mxCell id="Zv3L8iQLcZKGsGOPM7jH-8" value="&lt;font style=&quot;font-size: 12px;&quot;&gt;&lt;span style=&quot;line-height: 106%; font-family: &amp;quot;Times New Roman&amp;quot;, serif;&quot; lang=&quot;EN-US&quot;&gt;ID &lt;/span&gt;&lt;span style=&quot;line-height: 106%; font-family: &amp;quot;Times New Roman&amp;quot;, serif;&quot;&gt;ставки&amp;nbsp;&lt;/span&gt;&amp;nbsp;(PK)&lt;/font&gt;" style="rounded=0;whiteSpace=wrap;html=1;fillColor=none;" parent="1" vertex="1">
          <mxGeometry x="223" y="380" width="140" height="30" as="geometry" />
        </mxCell>
        <mxCell id="Zv3L8iQLcZKGsGOPM7jH-9" value="Ставка" style="rounded=0;whiteSpace=wrap;html=1;fillColor=none;" parent="1" vertex="1">
          <mxGeometry x="223" y="470" width="60" height="30" as="geometry" />
        </mxCell>
        <mxCell id="Zv3L8iQLcZKGsGOPM7jH-10" value="&lt;br&gt;&lt;span style=&quot;forced-color-adjust: none; color: rgb(0, 0, 0); font-size: 12px; font-style: normal; font-variant-ligatures: normal; font-variant-caps: normal; font-weight: 400; letter-spacing: normal; orphans: 2; text-align: center; text-indent: 0px; text-transform: none; widows: 2; word-spacing: 0px; -webkit-text-stroke-width: 0px; white-space: normal; background-color: rgb(251, 251, 251); text-decoration-thickness: initial; text-decoration-style: initial; text-decoration-color: initial; line-height: 12.72px; font-family: &amp;quot;Times New Roman&amp;quot;, serif;&quot; lang=&quot;EN-US&quot;&gt;ID&lt;span&gt;&amp;nbsp;коэффициента&amp;nbsp;&lt;/span&gt;&lt;/span&gt;&lt;span style=&quot;color: rgb(0, 0, 0); font-family: Helvetica; font-size: 12px; font-style: normal; font-variant-ligatures: normal; font-variant-caps: normal; font-weight: 400; letter-spacing: normal; orphans: 2; text-align: center; text-indent: 0px; text-transform: none; widows: 2; word-spacing: 0px; -webkit-text-stroke-width: 0px; white-space: normal; background-color: rgb(251, 251, 251); text-decoration-thickness: initial; text-decoration-style: initial; text-decoration-color: initial; display: inline !important; float: none;&quot;&gt;(FK)&lt;/span&gt;&lt;div&gt;&lt;br/&gt;&lt;/div&gt;" style="rounded=0;whiteSpace=wrap;html=1;fillColor=none;strokeColor=none;" parent="1" vertex="1">
          <mxGeometry x="223" y="440" width="140" height="30" as="geometry" />
        </mxCell>
        <mxCell id="Zv3L8iQLcZKGsGOPM7jH-11" value="" style="rounded=0;whiteSpace=wrap;html=1;fillColor=none;" parent="1" vertex="1">
          <mxGeometry x="653" y="390" width="140" height="120" as="geometry" />
        </mxCell>
        <mxCell id="Zv3L8iQLcZKGsGOPM7jH-12" style="edgeStyle=orthogonalEdgeStyle;rounded=0;orthogonalLoop=1;jettySize=auto;html=1;entryX=1;entryY=0.5;entryDx=0;entryDy=0;endArrow=oval;endFill=1;" parent="1" source="Zv3L8iQLcZKGsGOPM7jH-13" target="Zv3L8iQLcZKGsGOPM7jH-20" edge="1">
          <mxGeometry relative="1" as="geometry" />
        </mxCell>
        <mxCell id="Zv3L8iQLcZKGsGOPM7jH-13" value="&lt;font style=&quot;font-size: 12px;&quot;&gt;&lt;span style=&quot;line-height: 106%; font-family: &amp;quot;Times New Roman&amp;quot;, serif;&quot; lang=&quot;EN-US&quot;&gt;ID события&lt;/span&gt;&lt;span style=&quot;line-height: 106%; font-family: &amp;quot;Times New Roman&amp;quot;, serif;&quot;&gt;&amp;nbsp;&lt;/span&gt;&amp;nbsp;(PK)&lt;/font&gt;" style="rounded=0;whiteSpace=wrap;html=1;fillColor=none;" parent="1" vertex="1">
          <mxGeometry x="653" y="390" width="140" height="30" as="geometry" />
        </mxCell>
        <mxCell id="Zv3L8iQLcZKGsGOPM7jH-14" value="Событие" style="rounded=0;whiteSpace=wrap;html=1;fillColor=none;" parent="1" vertex="1">
          <mxGeometry x="653" y="480" width="60" height="30" as="geometry" />
        </mxCell>
        <mxCell id="Zv3L8iQLcZKGsGOPM7jH-15" value="&lt;div&gt;&lt;br&gt;&lt;/div&gt;" style="rounded=0;whiteSpace=wrap;html=1;fillColor=none;strokeColor=none;" parent="1" vertex="1">
          <mxGeometry x="653" y="420" width="140" height="30" as="geometry" />
        </mxCell>
        <mxCell id="Zv3L8iQLcZKGsGOPM7jH-16" value="" style="rounded=0;whiteSpace=wrap;html=1;fillColor=none;" parent="1" vertex="1">
          <mxGeometry x="433" y="395" width="140" height="90" as="geometry" />
        </mxCell>
        <mxCell id="Zv3L8iQLcZKGsGOPM7jH-17" style="edgeStyle=orthogonalEdgeStyle;rounded=0;orthogonalLoop=1;jettySize=auto;html=1;entryX=1;entryY=0.5;entryDx=0;entryDy=0;endArrow=oval;endFill=1;" parent="1" source="Zv3L8iQLcZKGsGOPM7jH-18" target="Zv3L8iQLcZKGsGOPM7jH-10" edge="1">
          <mxGeometry relative="1" as="geometry" />
        </mxCell>
        <mxCell id="Zv3L8iQLcZKGsGOPM7jH-18" value="&lt;font style=&quot;font-size: 12px;&quot;&gt;&lt;span style=&quot;line-height: 106%; font-family: &amp;quot;Times New Roman&amp;quot;, serif;&quot; lang=&quot;EN-US&quot;&gt;ID&amp;nbsp;&lt;/span&gt;&lt;span style=&quot;line-height: 106%; font-family: &amp;quot;Times New Roman&amp;quot;, serif;&quot;&gt;коэффициента&amp;nbsp;&lt;/span&gt;&amp;nbsp;(PK)&lt;/font&gt;" style="rounded=0;whiteSpace=wrap;html=1;fillColor=none;" parent="1" vertex="1">
          <mxGeometry x="433" y="395" width="140" height="30" as="geometry" />
        </mxCell>
        <mxCell id="Zv3L8iQLcZKGsGOPM7jH-19" value="Коэффициент" style="rounded=0;whiteSpace=wrap;html=1;fillColor=none;" parent="1" vertex="1">
          <mxGeometry x="433" y="455" width="90" height="30" as="geometry" />
        </mxCell>
        <mxCell id="Zv3L8iQLcZKGsGOPM7jH-20" value="&lt;font style=&quot;font-size: 12px;&quot;&gt;&lt;span style=&quot;line-height: 106%; font-family: &amp;quot;Times New Roman&amp;quot;, serif;&quot; lang=&quot;EN-US&quot;&gt;ID события&lt;/span&gt;&lt;span style=&quot;line-height: 106%; font-family: &amp;quot;Times New Roman&amp;quot;, serif;&quot;&gt;&amp;nbsp;&lt;/span&gt;&amp;nbsp;(FK)&lt;/font&gt;" style="rounded=0;whiteSpace=wrap;html=1;fillColor=none;fontColor=default;strokeColor=none;" parent="1" vertex="1">
          <mxGeometry x="433" y="425" width="140" height="30" as="geometry" />
        </mxCell>
        <mxCell id="Zv3L8iQLcZKGsGOPM7jH-21" value="" style="rounded=0;whiteSpace=wrap;html=1;fillColor=none;" parent="1" vertex="1">
          <mxGeometry x="13" y="240" width="140" height="90" as="geometry" />
        </mxCell>
        <mxCell id="Zv3L8iQLcZKGsGOPM7jH-22" value="&lt;font style=&quot;font-size: 12px;&quot;&gt;&lt;span style=&quot;font-family: &amp;quot;Times New Roman&amp;quot;, serif;&quot; lang=&quot;EN-US&quot;&gt;ID &lt;/span&gt;&lt;span style=&quot;line-height: 106%; font-family: &amp;quot;Times New Roman&amp;quot;, serif;&quot;&gt;транзакции&amp;nbsp;&lt;/span&gt;(PK)&lt;/font&gt;" style="rounded=0;whiteSpace=wrap;html=1;fillColor=none;" parent="1" vertex="1">
          <mxGeometry x="13" y="240" width="140" height="30" as="geometry" />
        </mxCell>
        <mxCell id="Zv3L8iQLcZKGsGOPM7jH-23" value="Транзакция" style="rounded=0;whiteSpace=wrap;html=1;fillColor=none;" parent="1" vertex="1">
          <mxGeometry x="13" y="300" width="90" height="30" as="geometry" />
        </mxCell>
        <mxCell id="Zv3L8iQLcZKGsGOPM7jH-24" value="" style="rounded=0;whiteSpace=wrap;html=1;fillColor=none;strokeColor=none;" parent="1" vertex="1">
          <mxGeometry x="13" y="270" width="140" height="30" as="geometry" />
        </mxCell>
        <mxCell id="Zv3L8iQLcZKGsGOPM7jH-25" value="Логин пользователя(FK)" style="rounded=0;whiteSpace=wrap;html=1;fillColor=none;" parent="1" vertex="1">
          <mxGeometry x="13" y="270" width="140" height="30" as="geometry" />
        </mxCell>
        <mxCell id="Zv3L8iQLcZKGsGOPM7jH-27" value="" style="rounded=0;whiteSpace=wrap;html=1;fillColor=none;" parent="1" vertex="1">
          <mxGeometry x="653" y="260" width="140" height="90" as="geometry" />
        </mxCell>
        <mxCell id="Zv3L8iQLcZKGsGOPM7jH-42" style="edgeStyle=orthogonalEdgeStyle;rounded=0;orthogonalLoop=1;jettySize=auto;html=1;entryX=1;entryY=0;entryDx=0;entryDy=0;endArrow=none;endFill=0;startArrow=none;startFill=0;" parent="1" source="Zv3L8iQLcZKGsGOPM7jH-29" target="Zv3L8iQLcZKGsGOPM7jH-41" edge="1">
          <mxGeometry relative="1" as="geometry">
            <Array as="points">
              <mxPoint x="820" y="275" />
              <mxPoint x="820" y="450" />
            </Array>
          </mxGeometry>
        </mxCell>
        <mxCell id="Zv3L8iQLcZKGsGOPM7jH-29" value="&lt;font style=&quot;font-size: 12px;&quot;&gt;&lt;span style=&quot;line-height: 106%; font-family: &amp;quot;Times New Roman&amp;quot;, serif;&quot; lang=&quot;EN-US&quot;&gt;ID команды&lt;/span&gt;&lt;span style=&quot;line-height: 106%; font-family: &amp;quot;Times New Roman&amp;quot;, serif;&quot;&gt;&amp;nbsp;&lt;/span&gt;&amp;nbsp;(PK)&lt;/font&gt;" style="rounded=0;whiteSpace=wrap;html=1;fillColor=none;" parent="1" vertex="1">
          <mxGeometry x="653" y="260" width="140" height="30" as="geometry" />
        </mxCell>
        <mxCell id="Zv3L8iQLcZKGsGOPM7jH-30" value="Команда" style="rounded=0;whiteSpace=wrap;html=1;fillColor=none;" parent="1" vertex="1">
          <mxGeometry x="653" y="320" width="60" height="30" as="geometry" />
        </mxCell>
        <mxCell id="Zv3L8iQLcZKGsGOPM7jH-39" value="&lt;font style=&quot;font-size: 12px;&quot;&gt;Логин пользователя(FK)&lt;/font&gt;" style="rounded=0;whiteSpace=wrap;html=1;fillColor=none;strokeColor=none;" parent="1" vertex="1">
          <mxGeometry x="223" y="410" width="140" height="30" as="geometry" />
        </mxCell>
        <mxCell id="Zv3L8iQLcZKGsGOPM7jH-40" value="&lt;br&gt;&lt;span style=&quot;forced-color-adjust: none; color: rgb(0, 0, 0); font-size: 12px; font-style: normal; font-variant-ligatures: normal; font-variant-caps: normal; font-weight: 400; letter-spacing: normal; orphans: 2; text-align: center; text-indent: 0px; text-transform: none; widows: 2; word-spacing: 0px; -webkit-text-stroke-width: 0px; white-space: normal; background-color: rgb(251, 251, 251); text-decoration-thickness: initial; text-decoration-style: initial; text-decoration-color: initial; line-height: 12.72px; font-family: &amp;quot;Times New Roman&amp;quot;, serif;&quot; lang=&quot;EN-US&quot;&gt;ID&lt;span&gt;&amp;nbsp;команды №1&amp;nbsp;&lt;/span&gt;&lt;/span&gt;&lt;span style=&quot;color: rgb(0, 0, 0); font-family: Helvetica; font-size: 12px; font-style: normal; font-variant-ligatures: normal; font-variant-caps: normal; font-weight: 400; letter-spacing: normal; orphans: 2; text-align: center; text-indent: 0px; text-transform: none; widows: 2; word-spacing: 0px; -webkit-text-stroke-width: 0px; white-space: normal; background-color: rgb(251, 251, 251); text-decoration-thickness: initial; text-decoration-style: initial; text-decoration-color: initial; display: inline !important; float: none;&quot;&gt;(FK)&lt;/span&gt;&lt;div&gt;&lt;br&gt;&lt;/div&gt;" style="rounded=0;whiteSpace=wrap;html=1;fillColor=none;strokeColor=none;" parent="1" vertex="1">
          <mxGeometry x="653" y="420" width="140" height="30" as="geometry" />
        </mxCell>
        <mxCell id="Zv3L8iQLcZKGsGOPM7jH-41" value="&lt;br&gt;&lt;span style=&quot;forced-color-adjust: none; color: rgb(0, 0, 0); font-size: 12px; font-style: normal; font-variant-ligatures: normal; font-variant-caps: normal; font-weight: 400; letter-spacing: normal; orphans: 2; text-align: center; text-indent: 0px; text-transform: none; widows: 2; word-spacing: 0px; -webkit-text-stroke-width: 0px; white-space: normal; background-color: rgb(251, 251, 251); text-decoration-thickness: initial; text-decoration-style: initial; text-decoration-color: initial; line-height: 12.72px; font-family: &amp;quot;Times New Roman&amp;quot;, serif;&quot; lang=&quot;EN-US&quot;&gt;ID&lt;span&gt;&amp;nbsp;команды №2&amp;nbsp;&lt;/span&gt;&lt;/span&gt;&lt;span style=&quot;color: rgb(0, 0, 0); font-family: Helvetica; font-size: 12px; font-style: normal; font-variant-ligatures: normal; font-variant-caps: normal; font-weight: 400; letter-spacing: normal; orphans: 2; text-align: center; text-indent: 0px; text-transform: none; widows: 2; word-spacing: 0px; -webkit-text-stroke-width: 0px; white-space: normal; background-color: rgb(251, 251, 251); text-decoration-thickness: initial; text-decoration-style: initial; text-decoration-color: initial; display: inline !important; float: none;&quot;&gt;(FK)&lt;/span&gt;&lt;div&gt;&lt;br&gt;&lt;/div&gt;" style="rounded=0;whiteSpace=wrap;html=1;fillColor=none;strokeColor=none;" parent="1" vertex="1">
          <mxGeometry x="653" y="450" width="140" height="30" as="geometry" />
        </mxCell>
      </root>
    </mxGraphModel>
  </diagram>
</mxfile>
